<svg width="333" height="152" viewBox="0 0 333 152" fill="none" xmlns="http://www.w3.org/2000/svg">
<path fill-rule="evenodd" clip-rule="evenodd" d="M283.878 11.2535C283.819 9.08726 282.046 7.36157 279.879 7.36157H11.841C9.6319 7.36157 7.84103 9.15243 7.84103 11.3616V140.187C7.84103 142.396 9.6319 144.187 11.841 144.187H281.293C283.502 144.187 285.293 142.396 285.293 140.187V118.542C285.293 116.333 287.083 114.542 289.293 114.542H321.58C323.789 114.542 325.58 112.751 325.58 110.542V39.4867C325.58 37.2775 323.789 35.4867 321.58 35.4867H288.426C286.259 35.4867 284.486 33.761 284.427 31.5947L283.878 11.2535Z" fill="#3B8AFF"/>
<rect x="43" y="37" width="56" height="78" rx="5" fill="#3B8AFF"/>
<rect x="119" y="37" width="56" height="78" rx="5" fill="#3B8AFF"/>
<rect x="195" y="37" width="56" height="78" rx="5" fill="#3B8AFF"/>
<path d="M72.6138 64.306C73.1628 63.6804 73.9466 63.3106 74.7785 63.2845L80.681 63.0999C80.9438 63.0916 81.0897 63.401 80.9163 63.5985L68.4378 77.8092C68.0523 78.2483 67.5005 78.5058 66.9164 78.5193L60.6844 78.6635C60.4228 78.6695 60.2789 78.3615 60.4516 78.1648L72.6138 64.306Z" fill="white"/>
<path d="M73.5031 74.5603C73.8847 74.1254 74.4296 73.8683 75.0079 73.8502L81.308 73.6531C81.5708 73.6449 81.7167 73.9542 81.5432 74.1517L69.0648 88.3625C68.6792 88.8015 68.1275 89.059 67.5434 89.0725L61.3113 89.2167C61.0497 89.2227 60.9059 88.9147 61.0785 88.718L73.5031 74.5603Z" fill="white"/>
<path d="M148.614 64.306C149.163 63.6804 149.947 63.3106 150.779 63.2845L156.681 63.0999C156.944 63.0916 157.09 63.401 156.916 63.5985L144.438 77.8092C144.052 78.2483 143.501 78.5058 142.916 78.5193L136.684 78.6635C136.423 78.6695 136.279 78.3615 136.452 78.1648L148.614 64.306Z" fill="white"/>
<path d="M149.503 74.5603C149.885 74.1254 150.43 73.8683 151.008 73.8502L157.308 73.6531C157.571 73.6449 157.717 73.9542 157.543 74.1517L145.065 88.3625C144.679 88.8015 144.128 89.059 143.543 89.0725L137.311 89.2167C137.05 89.2227 136.906 88.9147 137.079 88.718L149.503 74.5603Z" fill="white"/>
<path d="M224.614 64.306C225.163 63.6804 225.947 63.3106 226.779 63.2845L232.681 63.0999C232.944 63.0916 233.09 63.401 232.916 63.5985L220.438 77.8092C220.052 78.2483 219.501 78.5058 218.916 78.5193L212.684 78.6635C212.423 78.6695 212.279 78.3615 212.452 78.1648L224.614 64.306Z" fill="white"/>
<path d="M225.503 74.5603C225.885 74.1254 226.43 73.8683 227.008 73.8502L233.308 73.6531C233.571 73.6449 233.717 73.9542 233.543 74.1517L221.065 88.3625C220.679 88.8015 220.128 89.059 219.543 89.0725L213.311 89.2167C213.05 89.2227 212.906 88.9147 213.079 88.718L225.503 74.5603Z" fill="white"/>
</svg>
